<?xml version="1.0" encoding="utf-8"?>
<!-- Generator: Adobe Illustrator 26.2.1, SVG Export Plug-In . SVG Version: 6.00 Build 0)  -->
<svg version="1.1" id="Layer_1" xmlns="http://www.w3.org/2000/svg" xmlns:xlink="http://www.w3.org/1999/xlink" x="0px" y="0px"
	 viewBox="0 0 122.9 122.1" style="enable-background:new 0 0 122.9 122.1;" xml:space="preserve">
<style type="text/css">
	.st0{fill:#00BCD4;}
</style>

<path class="st0" d="M31.2,113.9l-1.2,1.2c-2,2.1-5.3,2.2-7.3,0.3c-1-1-1.6-2.3-1.7-3.7V99.4h-1.6c-2.4,0-4.7-1-6.4-2.7
	c-0.8-0.8-1.4-1.6-1.8-2.6h-0.4C4.8,94.2,0,89.4,0,83.4V10.7c0-2.7,1-5.2,2.8-7.2l0.4-0.4c2-2,4.7-3.2,7.6-3.2h94.4
	c5.2,0,9.6,3.7,10.6,8.8c1.7,0.4,3.3,1.2,4.5,2.5c1.7,1.7,2.7,4,2.7,6.4v72.7c0,5-4.1,9.1-9.1,9.1h-54l-22.4,21.5
	c-1.3,1.4-3.6,1.6-5,0.2c-0.7-0.7-1.2-1.6-1.2-2.6V113.9z M27.9,60.4c-2-0.1-3.5-1.8-3.3-3.7c0.1-1.8,1.5-3.3,3.3-3.3h48.9
	c2-0.1,3.6,1.4,3.7,3.3c0.1,2-1.4,3.6-3.3,3.7c-0.1,0-0.3,0-0.4,0H27.9z M27.9,37.4c-2-0.1-3.5-1.8-3.3-3.7c0.1-1.8,1.5-3.3,3.3-3.3
	h60c2,0.1,3.5,1.8,3.3,3.7c-0.1,1.8-1.5,3.3-3.3,3.3H27.9z M26.1,111.6L49.7,89h55.4c3.1,0,5.5-2.5,5.5-5.5V10.7
	c0-3-2.5-5.5-5.5-5.5H10.7c-3,0-5.5,2.5-5.5,5.5v72.7c0,3.1,2.5,5.5,5.5,5.6h15.4V111.6L26.1,111.6z"/>
</svg>
