<?xml version="1.0" encoding="utf-8"?>
<!-- Generator: Adobe Illustrator 26.2.1, SVG Export Plug-In . SVG Version: 6.00 Build 0)  -->
<svg version="1.1" id="Layer_1" xmlns="http://www.w3.org/2000/svg" xmlns:xlink="http://www.w3.org/1999/xlink" x="0px" y="0px"
	 viewBox="0 0 96 122.9" style="enable-background:new 0 0 96 122.9;" xml:space="preserve">
<style type="text/css">
	.st0{fill:#00BCD4;}
</style>

<g>
	<path class="st0" d="M50.4,0c3.6,0,6.8,1.5,9.2,3.8c2.4,2.3,3.8,5.6,3.8,9.2s-1.5,6.8-3.8,9.2C57.2,24.5,54,26,50.4,26
		s-6.8-1.5-9.2-3.8s-3.8-5.6-3.8-9.2s1.5-6.8,3.8-9.2C43.5,1.5,46.8,0,50.4,0L50.4,0z M25.7,37.6l9.3-6.1c2.1-1.4,7.8-2.2,13.3-2.2
		c5.2,0,10.4,0.6,12.7,2l9.3,6.1l1.4,0.9c0.3,0.2,0.6,0.4,0.8,0.6c0.3-0.3,0.7-0.6,1.1-1l1.6-1.2c0.8-0.6,1.6-1.2,2.4-1.9
		c0.8-0.7,1.5-1.3,2.3-2.1c0.8-0.7,1.6-1.5,2.3-2.2c0.7-0.7,1.4-1.4,2.1-2.1l0.1-0.1c1.3-1.3,3-2,4.8-2c1.7,0,3.4,0.6,4.8,1.8
		l0.1,0.1c1.3,1.3,2,3,2,4.8c0,1.7-0.6,3.5-1.9,4.8c-0.8,0.8-1.6,1.7-2.5,2.5c-0.8,0.8-1.7,1.6-2.5,2.4c-0.9,0.8-1.8,1.6-2.7,2.4
		c-0.9,0.8-1.9,1.5-2.9,2.3l-1.4,1.1c0,0-0.2,0.1-0.2,0.1c-3.5,2.8-5.3,4.2-8.5,4.4h-0.1c-1.8,0.1-3.2-0.1-4.7-0.8
		c-1.3-0.6-2.7-1.5-4.4-2.6l0.8,15.3l0.3,0.3c0.2,0.3,0.5,0.6,0.7,0.9c0.9,1.3,1.8,2.5,2.6,3.8c0.9,1.3,1.8,2.7,2.7,4.2
		c0.9,1.4,1.8,2.8,2.6,4.3c0.8,1.5,1.6,3,2.4,4.5c3.8,7.8,3.8,7.8,1.6,14.5c-0.1,0.3-0.2,0.5-0.2,0.8c-0.1,0.4-0.3,0.8-0.4,1.1
		c0,0-4.9,16-5.3,17.5c-0.6,2-1.9,3.5-3.6,4.4c-1.7,0.9-3.7,1.2-5.7,0.6h0c-2-0.6-3.5-1.9-4.4-3.6c-0.9-1.7-1.2-3.7-0.6-5.7
		l5.3-17.4l0-0.1l0.4-1.3l0.3-0.8c0.3-1,0.3-1.1-0.8-3.3l0-0.1c-0.6-1.2-1.3-2.5-2-3.7c-0.7-1.2-1.5-2.5-2.2-3.7
		c-0.4-0.7-0.9-1.4-1.4-2.2l-1-1.5l-0.1,0c0.1,0.5,0.3,1,0.4,1.5c0.2,0.9,0.4,1.9,0.6,2.8c1.9,9.8,1.3,10.9-2.2,17.6
		c0,0.1-0.1,0.2-0.1,0.2l-0.6,1.2l-0.7,1.4l-7.7,15.4c-0.9,1.8-2.5,3.1-4.3,3.7c-1.8,0.6-3.8,0.5-5.7-0.4l0,0
		c-1.8-0.9-3.1-2.5-3.7-4.3c-0.6-1.8-0.5-3.8,0.4-5.7l7.7-15.4c0.6-1.2,1-2.1,1.5-2.8l0.1-0.1c0.7-1.4,1.2-2.2,1.3-3.2
		c0.1-1-0.1-2.3-0.5-4.8c-0.2-0.8-0.3-1.6-0.5-2.4c-0.2-0.8-0.4-1.6-0.6-2.3c-0.2-0.6-0.4-1.4-0.7-2.3h0c-0.2-0.7-0.5-1.6-0.8-2.5
		l0,0c-0.1-0.2-0.2-0.5-0.2-0.7l-0.1-0.4c0-0.1-0.1-0.2-0.1-0.3l-3.1-28c-1.5,1-3.2,2-4.7,3.1c-1.8,1.2-3.1,2.1-4.5,2.7
		c-1.5,0.7-2.9,0.9-4.7,0.8c-1.7-0.1-3-0.6-4.4-1.4c-1.2-0.7-2.5-1.7-4.2-3c-0.5-0.4-1.1-0.8-1.6-1.2c-1-0.8-2-1.6-2.9-2.3
		c-0.9-0.8-1.8-1.6-2.7-2.4c-0.8-0.8-1.7-1.6-2.5-2.4c-0.8-0.8-1.7-1.7-2.5-2.5c-1.3-1.3-2-3.1-1.9-4.8c0-1.7,0.7-3.4,2-4.7L2,28.5
		c1.4-1.3,3.1-2,4.8-1.9c1.7,0,3.4,0.7,4.7,2l0.1,0.1c0.7,0.7,1.4,1.5,2.2,2.2c0.7,0.7,1.5,1.4,2.3,2.2c0.8,0.7,1.6,1.4,2.3,2.1
		c0.8,0.7,1.6,1.3,2.4,1.9c0.5,0.4,1,0.8,1.5,1.2c0.5,0.4,0.9,0.7,1.1,1c0.2-0.2,0.4-0.4,0.7-0.6C24.7,38.2,25.2,37.9,25.7,37.6
		L25.7,37.6z"/>
</g>
</svg>
