<?xml version="1.0" encoding="utf-8"?>
<!-- Generator: Adobe Illustrator 26.2.1, SVG Export Plug-In . SVG Version: 6.00 Build 0)  -->
<svg version="1.1" id="Layer_1" xmlns="http://www.w3.org/2000/svg" xmlns:xlink="http://www.w3.org/1999/xlink" x="0px" y="0px"
	 viewBox="0 0 106.7 122.9" style="enable-background:new 0 0 106.7 122.9;" xml:space="preserve">
<style type="text/css">
	.st0{fill:#00BCD4;}
</style>

<g>
	<path class="st0" d="M87.7,0c1.3,0,2.4,0.4,3.4,1.4l14.2,13.6c0.9,0.9,1.4,2,1.4,3.3c0,1.3-0.4,2.5-1.3,3.4l-7.5,7.8L76.9,9.2
		l7.5-7.8C85.3,0.5,86.4,0,87.7,0L87.7,0L87.7,0z M21.4,72.9c2.6-0.8,5.3,0.7,6.1,3.2c0.8,2.6-0.6,5.3-3.2,6.1
		c-7.5,2.3-12.4,6.7-14.1,10.8c-0.4,1.1-0.6,2.1-0.4,3c0.1,0.6,0.5,1.2,1.1,1.7c2.7,2,8.6,2.5,18.4,0.1c4.8-1.2,2.8-0.7,6-1.3
		c6.3-1.2,12.6-2,17.7-1.7c6.7,0.3,11.7,2.5,13.4,7.6c1.1,3.3,0.8,6.2,0.5,8.8c-0.1,0.9-0.2,1.8-0.2,2.4c0,0,1-0.1,5.9-0.4
		c5.7-0.4,11.5-2.7,17.3-4.9c3-1.1,5.9-2.2,9.2-3.3c2.6-0.8,5.3,0.7,6,3.2c0.8,2.6-0.7,5.3-3.2,6c-2.6,0.8-5.6,1.9-8.6,3.1
		c-6.4,2.5-13,4.9-20,5.5c-12.9,1-15.9-2.6-16.3-8.5c-0.1-1.4,0-2.7,0.2-4.1c0.2-1.6,0.4-3.4-0.1-4.7c-0.2-0.6-2-0.9-4.7-1
		c-4.3-0.2-9.8,0.5-15.5,1.6c-2.8,0.5-0.8,0-5.5,1.2c-13,3.2-21.6,1.8-26.4-1.7c-2.7-2-4.3-4.6-4.9-7.5c-0.6-2.7-0.2-5.6,0.9-8.5
		C3.8,82.8,11,76.1,21.4,72.9L21.4,72.9L21.4,72.9z M44.1,51.7l12.8,12.3l-15.7,4.2c-0.6,0.1-0.8-0.1-0.7-0.6L44.1,51.7L44.1,51.7
		L44.1,51.7z M70.3,16.1l20.9,20.1L62.7,66.4l-25.6,6.9c-0.9,0.2-1.3-0.2-1.1-1.1l5.8-25.9L70.3,16.1L70.3,16.1L70.3,16.1z"/>
</g>
</svg>
