<?xml version="1.0" encoding="utf-8"?>
<!-- Generator: Adobe Illustrator 25.3.1, SVG Export Plug-In . SVG Version: 6.00 Build 0)  -->
<svg version="1.1" id="Layer_1" xmlns="http://www.w3.org/2000/svg" xmlns:xlink="http://www.w3.org/1999/xlink" x="0px" y="0px"
	 viewBox="0 0 200 200" style="enable-background:new 0 0 200 200;" xml:space="preserve">
<style type="text/css">
	.st0{fill:#00BCD4;}
</style>
<g id="yvcte4.tif">
	<g>
		<path class="st0" d="M6.59,105.82c0.47-2.97,0.82-5.97,1.44-8.92c2.24-10.56,7.25-19.65,14.75-27.38
			c1.89-1.95,4.06-2.14,5.75-0.56c1.77,1.66,1.71,3.85-0.26,5.89c-7.58,7.88-12.19,17.21-13.43,28.08
			c-1.68,14.81,2.47,27.83,12.43,38.96c0.44,0.5,0.93,0.95,1.36,1.46c1.54,1.79,1.55,3.88,0.03,5.36c-1.62,1.59-3.88,1.72-5.48-0.08
			c-2.64-2.97-5.29-6-7.49-9.3c-5.22-7.84-8.09-16.55-8.81-25.96c-0.04-0.47-0.2-0.93-0.3-1.4C6.59,109.93,6.59,107.88,6.59,105.82z
			"/>
		<path class="st0" d="M140.71,184c-10.1,0-20.19,0-30.29,0c-3.56,0-4.63-1.08-5.26-4.57c-1.35-7.48-2.74-14.96-4.3-22.4
			c-0.7-3.32-2.3-4.36-5.67-4.38c-2.36-0.01-4.72,0-7.07,0c-8.49-0.01-13.6-4.79-14.39-13.27c-0.61-6.56-1.43-13.09-2.07-19.65
			c-0.16-1.59-0.93-2.39-2.37-2.77c-1.28-0.34-2.56-0.7-3.84-1.05c-6.88-1.88-9.48-8.66-5.72-14.71c2.8-4.51,5.52-9.08,8.2-13.67
			c2.06-3.52,2.88-7.37,2.94-11.44C71.25,49.87,87.99,27.2,112.95,19c34.97-11.49,72.21,10.92,78.42,47.22
			c2.3,13.43,0.31,26.21-6.05,38.29c-7.99,15.2-12.46,31.29-11.73,48.55c0.29,6.99,1.25,13.96,1.91,20.94
			c0.15,1.62,0.37,3.24,0.51,4.87c0.3,3.47-1.17,5.11-4.65,5.12c-7.74,0.02-15.48,0.01-23.22,0.01C145.67,184,143.19,184,140.71,184
			z M168.17,176.55c-0.46-4.51-0.69-8.85-1.39-13.12c-1.47-8.99-1.25-17.95,0.05-26.9c1.84-12.62,6.11-24.43,12-35.71
			c4.81-9.23,6.96-19.17,6.13-29.45c-2.1-26.3-24.99-47.29-51.4-47.57c-23.46-0.25-43.92,14.08-51.39,35.92
			c-2.2,6.44-2.52,13.11-3.06,19.8c-0.27,3.35-1.16,6.88-2.7,9.84c-2.8,5.4-6.25,10.46-9.51,15.61c-1.14,1.8-0.95,2.81,1.08,3.61
			c1.17,0.46,2.42,0.75,3.63,1.12c5.05,1.55,7.71,4.85,8.25,10.07c0.69,6.73,1.43,13.46,2.16,20.19c0.37,3.43,2.42,5.3,5.89,5.36
			c2.72,0.04,5.44-0.01,8.16,0.01c5.72,0.05,10.42,3.41,12.14,8.87c0.87,2.76,1.57,5.58,2.13,8.42c0.91,4.6,1.64,9.24,2.45,13.93
			C131.13,176.55,149.43,176.55,168.17,176.55z"/>
		<path class="st0" d="M20.87,109.34c0.25-11.88,4.21-21.47,11.8-29.56c2.04-2.17,4.07-2.42,5.86-0.81
			c1.86,1.67,1.77,3.78-0.25,6.03c-10.52,11.71-12.5,27.85-4.84,40.73c1.43,2.41,3.39,4.53,5.19,6.71c1.66,2.01,1.62,4.24-0.24,5.74
			c-1.7,1.37-3.57,1.23-5.35-0.5c-6.32-6.13-10.16-13.57-11.57-22.25C21.12,113.17,21.02,110.87,20.87,109.34z"/>
		<path class="st0" d="M35.94,106.52c0.06-4.86,2.36-11,7.07-16.19c2.03-2.24,4.2-2.53,5.99-0.89c1.77,1.63,1.7,4.19-0.19,6.3
			c-7.35,8.24-7.32,18.41,0.08,26.81c1.82,2.07,1.83,4.38,0.03,5.9c-1.76,1.47-3.82,1.23-5.62-0.65
			C38.63,122.89,35.92,115.84,35.94,106.52z"/>
	</g>
</g>
</svg>
