<?xml version="1.0" encoding="utf-8"?>
<!-- Generator: Adobe Illustrator 26.2.1, SVG Export Plug-In . SVG Version: 6.00 Build 0)  -->
<svg version="1.1" id="Layer_1" xmlns="http://www.w3.org/2000/svg" xmlns:xlink="http://www.w3.org/1999/xlink" x="0px" y="0px"
	 viewBox="0 0 86.2 142.8" style="enable-background:new 0 0 86.2 142.8;" xml:space="preserve">
<style type="text/css">
	.st0{fill:#00BCD4;}
</style>

<g id="_x39_Ks2tx.tif">
	<g>
		<path class="st0" d="M0.3,77.7c1.9-2.9,3.3-4,8.2-6.2c-0.6-0.8-1.1-1.6-1.7-2.3c-1.5-1.8-1.5-2.8,0.1-4.4
			c8.2-8.2,16.5-16.5,24.7-24.7c1-1,1.9-1.5,3.4-0.9c0.3,0.1,1-0.3,1.3-0.6c6.6-6.6,13.2-13.2,19.8-19.8c3.8-3.8,7.6-7.5,11.3-11.3
			c-2-2.6-2.2-3.6-1-4.7c1.1-1,2-0.8,4.4,1.1c1.4-1.2,2.8-2.4,4.2-3.6c0.5,0,0.9,0,1.4,0c3,2.9,6,5.9,9,8.9c1.1,1.1,1,2.3,0,3.5
			c-0.3,0.3-0.6,0.6-0.9,0.9C72.4,25.6,60.3,37.7,48.1,49.8c-0.4,0.4-0.8,0.6-1.3,1c0.5,0.6,0.8,0.9,1.2,1.3
			c0.4-0.4,0.8-0.7,1.1-1.1c6.8-6.8,13.7-13.6,20.5-20.5c0.3-0.3,0.6-0.6,0.9-0.9c1.1-0.9,2.4-0.9,3.3,0c0.9,0.9,0.9,2.2,0,3.3
			c-0.3,0.4-0.6,0.7-1,1c-6.8,6.8-13.5,13.5-20.3,20.3c-0.4,0.4-0.8,0.6-1.3,1c0.4,0.5,0.7,0.8,1,1.1c1.6,1.6,3.2,3.1,4.7,4.7
			c1.3,1.4,1.3,2.5,0,3.9c-1.5,1.6-3.1,3.1-4.6,4.6c-2,2-2.1,2.9-0.4,5.1c1.5,2,2.7,4.1,2.9,6.6c0.3,3.3-0.5,6.4-2.7,8.9
			c-1.7,1.9-3.5,3.9-5.4,5.6c-2.9,2.6-6.4,3-10,1.5c-0.5-0.2-1.2-0.1-1.7,0.1c-0.5,0.1-1,0.5-1.4,0.8c-2.7,1.7-3.3,3.6-2,6.6
			c1.8,4,4.8,7,8,9.9c1.6,1.4,3.3,2.7,5,4c3,2.4,3.2,5.9,0.5,8.6c-4.4,4.5-8.9,8.9-13.4,13.4c-2.9,2.9-6.9,2.9-9.6,0
			c-5.5-5.7-10.7-11.6-14.7-18.5c-3.3-5.7-5.2-11.7-4.7-18.3c0.2-2.3,0.7-4.5,0.9-6.7c0.1-1.1,0-2.2-0.2-3.3c-0.6-2.2-0.6-2.6,1.3-4
			c2.7-2.1,4.7-4.7,5.4-8c0.4-1.8,0.4-3.7,0.6-5.7c-2.5,0.4-4,1.4-5.4,2.9c-0.5,0.6-1.1,1.2-1.8,1.5c-1.5,0.7-2.3-0.3-3-1.4
			C0.3,78.6,0.3,78.1,0.3,77.7z M30.8,94.4c-6.7-4.4-13.4-5-20.5-2c-1.6,0.7-2.7,1.6-2.1,3.5c0.1,0.2,0,0.5,0,0.7
			c-0.3,2.3-0.7,4.7-0.9,7c-0.5,6.1,1.3,11.5,4.3,16.7c3.7,6.3,8.6,11.6,13.5,16.9c1.2,1.2,2,1.2,3.3-0.1c4-3.9,7.9-7.9,11.8-11.8
			c2.5-2.5,2.5-2-0.3-4.2c-4.4-3.5-8.5-7.2-11.5-12c-1.5-2.4-2.5-5-2.3-7.9C26.5,98.3,28.1,96.1,30.8,94.4z M30.9,88.8
			c0.4-5.5,0.9-6.7,4.9-10.5c0.7-0.7,1.5-1.4,2.2-2.1c2.2-2.3,4.5-4.3,8.1-4.2c0.3-4.3,3.9-6.2,6.1-8.9
			c-6.2-6.2-12.3-12.2-18.2-18.2c-7.4,7.4-14.9,14.9-22.5,22.5c4.1,5.8,4.8,12.2,2,18.9C23.5,85.7,22,85.5,30.9,88.8z M43.5,47.4
			C55.8,35.2,68,23,80.1,10.9c-1.5-1.5-3.1-3.1-4.6-4.6C63.4,18.4,51.2,30.7,39,42.8C40.5,44.3,42,45.9,43.5,47.4z M35.8,87.5
			c-0.2,2.2,1,4.6,2.9,5.5c1.9,0.9,3.9,0.5,5.6-1.2c1.5-1.6,3.1-3.1,4.5-4.8c2.1-2.6,2.1-6.3,0-8.9c-1.4-1.8-3.5-2.2-5.3-0.7
			c-2.1,1.7-3.9,3.7-5.8,5.5c0,0.1,0.1,0.2,0.1,0.3c1.1,0,2.2,0.2,3.3,0c1.9-0.3,3.2,0.1,3.5,1.5c0.4,1.5-0.4,2.5-2.4,3.1
			C40,88.5,37.9,88.2,35.8,87.5z"/>
		<path class="st0" d="M13.7,99.3c-1.2,0-2.3-1.1-2.3-2.3c0-1.3,1.2-2.4,2.4-2.3c1.2,0.1,2.2,1.2,2.2,2.4
			C16,98.3,14.9,99.3,13.7,99.3z"/>
		<path class="st0" d="M29.9,123c1.3,0.1,2.2,1.1,2.1,2.4c-0.1,1.3-1.1,2.2-2.4,2.1c-1.3-0.1-2.2-1.1-2.1-2.4
			C27.6,123.8,28.6,122.9,29.9,123z"/>
		<path class="st0" d="M47.5,63.6c-0.5,0.7-0.7,1.4-1.2,1.9c-4.5,4.6-9.1,9.1-13.7,13.7c-1.4,1.4-2.6,1.4-4,0
			c-3.9-3.8-7.8-7.7-11.6-11.6c-1.3-1.3-1.3-2.6,0-3.9c4.6-4.6,9.2-9.2,13.8-13.8c1.3-1.3,2.6-1.3,3.9,0c3.9,3.9,7.8,7.8,11.7,11.7
			C46.8,62.2,47.1,62.9,47.5,63.6z M38.7,60.8c-2.2,2.2-4.3,4.3-6.4,6.4c-0.6,0.6-1.2,1.2-1.9,1.7c-1,0.7-2,0.5-2.8-0.3
			c-0.8-0.8-0.9-1.8-0.3-2.8c0.3-0.5,0.7-0.9,1.1-1.3c2.3-2.3,4.7-4.6,7-6.9c-0.9-1-1.8-1.9-2.6-2.7c-3.7,3.7-7.3,7.3-10.8,10.8
			c2.8,2.8,5.8,5.7,8.6,8.6c3.5-3.5,7.2-7.2,10.7-10.7C40.6,62.7,39.7,61.8,38.7,60.8z"/>
	</g>
</g>
</svg>
