<?xml version="1.0" encoding="utf-8"?>
<!-- Generator: Adobe Illustrator 26.3.1, SVG Export Plug-In . SVG Version: 6.00 Build 0)  -->
<svg version="1.1" id="Layer_1" xmlns="http://www.w3.org/2000/svg" xmlns:xlink="http://www.w3.org/1999/xlink" x="0px" y="0px"
	 viewBox="0 0 144.8 142.8" style="enable-background:new 0 0 144.8 142.8;" xml:space="preserve">
<style type="text/css">
	.st0{fill:#00BCD4;}
</style>
<g id="rmzpEn_00000018932152548159873550000002804822853209993657_">
	<g>
		<path class="st0" d="M97.3,90.8c-4.1,4.7-8,9.1-11.8,13.4c-2.8-3-5.2-5.9-7.9-8.5c-10.3-10-11.2-26.2-1.9-36.7
			c9.6-10.9,25.7-12.3,36.9-2.9c16.6,13.9,26.1,31.8,28.4,53.2c1.1,10.1,0.2,20.3,0.2,30.9c-18.2,0-35.9,0-54,0
			c0.8-4.5-0.1-9.6,5.9-11.6c1.1-0.3,1.9-1.6,2.7-2.5c8.1-9.2,16.3-18.4,24.3-27.7c5.2-6,5-11.4-0.4-17.1
			c-6.4-6.7-12.9-13.4-19.3-20.1c-5-5.1-11.8-5.5-16.4-1.1c-4.6,4.4-4.5,11.1,0.3,16.4C88.6,81.3,92.8,85.9,97.3,90.8z"/>
		<path class="st0" d="M58.6,57.4c-15.1-0.2-27.1-12.6-27-27.7C31.8,14.4,44.2,2.3,59.6,2.5c15.3,0.2,27.2,12.7,26.9,28.2
			C86.2,45.8,73.8,57.7,58.6,57.4z"/>
		<path class="st0" d="M60,60.2c-2.1,10.5-4,20.2-6,30c-0.6,0-1.1-0.1-1.7-0.1c-1.1-5.4-2.3-10.8-3.4-16.2c-0.5-0.1-0.9-0.2-1.4-0.3
			c-1.3,2.5-2.8,5-3.9,7.6c-4.1,10-7.9,20.2-12.1,30.2c-1.6,3.9-3.7,7.6-6.1,11.1c-1,1.4-3.6,2.9-4.8,2.5c-1.4-0.5-2.8-3-3-4.7
			c-0.3-3.4-0.1-6.9,0.4-10.3c1.4-7.9,3.3-15.7,4.6-23.6c0.4-2.1-0.5-4.4-0.9-6.7c-2.2,0.4-4.5,0.5-6.6,1.2c-2.9,1-5.6,2.4-9.7,4.1
			c0.9-3.1,1.1-5,1.9-6.5c6-12.4,16-20.8,27.5-27.7c0.8-0.5,2.8-0.3,3.5,0.4C44.1,56.3,50.8,59.5,60,60.2z"/>
		<path class="st0" d="M100.7,90.8c-4.8-5.3-9.5-10.5-14.1-15.6c-4.2-4.6-4.4-9.9-0.6-13.3c3.8-3.5,8.6-3,12.9,1.4
			c6.5,6.6,12.9,13.3,19.3,20c4.1,4.3,4.4,8.5,0.5,13c-8.2,9.5-16.5,19-24.9,28.4c-3.9,4.3-9.1,4.8-12.9,1.3
			c-3.6-3.4-3.7-8.3,0-12.6C87.4,105.8,94,98.4,100.7,90.8z"/>
	</g>
</g>
</svg>
