<?xml version="1.0" encoding="utf-8"?>
<!-- Generator: Adobe Illustrator 26.2.1, SVG Export Plug-In . SVG Version: 6.00 Build 0)  -->
<svg version="1.1" id="Layer_1" xmlns="http://www.w3.org/2000/svg" xmlns:xlink="http://www.w3.org/1999/xlink" x="0px" y="0px"
	 viewBox="0 0 86.2 138.7" style="enable-background:new 0 0 86.2 138.7;" xml:space="preserve">
<style type="text/css">
	.st0{fill:#00BCD4;}
</style>

<g id="X0IDjf.tif">
	<g>
		<path class="st0" d="M45.3,139c-1.3,0-2.5,0-3.8,0c-0.1-0.1-0.2-0.2-0.3-0.2c-7-1.3-11.5-7.3-11.3-14.2c0.1-6.2,0-12.4,0-18.7
			c0-0.5,0-1,0-1.5c-5.7,0.5-5.4-0.2-9.3-2.8C15.2,98.2,10,94.6,4.6,91.1c-2-1.3-3.7-2.8-4.4-5.1c0-0.8,0-1.6,0-2.4
			c1-2.9,2.8-4.7,5.9-5.1c0.5-11.2,1.1-22.2,1.6-33.2c0-0.5-0.3-1-0.6-1.4c-1.4-1.7-1.5-3.9,0-5.4c0.8-0.8,1-1.7,1.1-2.8
			C8.7,28.1,9,20.4,9.5,12.8c0.1-2.1-0.2-3.5-2.4-4C6.6,8.8,6.2,8.4,5.8,8.2C4.1,7,3.5,4.8,4.4,2.9c0.9-1.8,3.1-2.8,5-2.1
			C10,1,10.5,1.2,11,1.5C22.7,7,34.3,12.5,46,18.1c1.2,0.6,2.1,0.6,3.3,0c2.6-1.4,5.4-2.6,8-3.9C64.8,10.6,72.4,7,80,3.4
			c2.8-1.3,4.9-0.5,6.2,2.2c0.1,0.1,0.2,0.2,0.2,0.3c0,0.6,0,1.3,0,1.9c-0.6,1.6-1.6,2.7-3.2,3.3c-0.4,0.2-0.8,0.8-0.8,1.2
			c-0.4,7.1-0.8,14.3-1.1,21.5c0,0.4,0.3,1.1,0.7,1.3c1.4,0.9,2.2,2.2,2.1,3.8c-0.1,1.8-1,3-2.7,3.8c-0.3,0.2-0.7,0.7-0.7,1.1
			c-0.7,11.6-1.3,23.3-1.9,34.9c-0.5,9.2-0.9,18.4-1.6,27.7c-0.2,3.4-0.2,6.7,1.7,9.7c0.3,0.5,0.6,1,0.6,1.5c0,1.5,0.1,3-0.4,4.3
			c-0.9,2.4-3,3.6-5.5,3.7c-2.7,0-4.8-1.3-5.9-3.8c-2.4-5.5-4.9-11-7.2-16.6c-0.7-1.8-1.9-2.3-3.7-2.5c0,0.6,0,1,0,1.5
			c0,6.9,0,13.9,0,20.8c0,4.5-1.6,8.4-5.3,11C49.7,137.4,47.4,138.1,45.3,139z M63.3,91.5c0.1-0.6,0.2-1,0.3-1.4
			c0.8-4.5,1.6-9,2.4-13.4c2.1-11.8,4.2-23.7,6.3-35.5c0.2-0.9,0-1.4-1-1.9c-7.6-3.6-15.2-7.2-22.9-10.8c-0.5-0.2-1.3-0.3-1.8,0
			c-8.7,4.1-17.4,8.3-26.2,12.3c-0.9,0.4-1.1,1-1,1.9c0.4,2.4,0.7,4.7,1,7.1c1.8,13.1,3.7,26.1,5.5,39.2c0.2,1.5,1.2,2.6,2.2,2.5
			c2.4-0.2,4.9-0.6,7-1.6c1.6-0.8,2.6-2.6,3.8-4c-3.3-1.3-6.2-3.5-7.9-7c-1.8-3.4-2.2-7-1.2-10.7c1.7-6.3,7.5-10.7,14.1-10.7
			c6.5,0,12.4,4.4,14.2,10.5c0.9,3.1,0.8,6.2-0.3,9.2c-1.6,4.3-4.7,7.2-9.1,9.1C53.4,88.7,58.4,89.7,63.3,91.5z M75.9,109
			c0.1,0,0.2,0,0.3-0.1C77.3,87,78.5,65,79.7,43.3c-2.2-1-4.2-1.9-6.2-2.8c-3,17.2-6,34.3-9.1,51.4c3.2,0.6,5.3,2.3,6.3,5.3
			c0.2,0.7,0.6,1.4,0.9,2.1C73,102.5,74.5,105.8,75.9,109z M8.9,45.1C8.4,56,7.9,66.8,7.3,77.5c0,0.7,0.1,1,0.8,1.2
			C9.1,79,10,79.5,10.8,80c2.8,1.8,5.5,3.7,8.3,5.6c1.9,1.3,3.8,2.5,6,4c-2.3-16.1-4.5-31.8-6.7-47.5C15.1,43,12.6,45.7,8.9,45.1z
			 M9.3,36.9c9.6-4.5,18.9-9,28.5-13.5c-9.1-4.3-18.1-8.6-27.2-12.9C10.2,19.4,9.7,28,9.3,36.9z M57.3,23.4
			c7.7,3.6,15.2,7.2,22.9,10.9c0.4-7.5,0.8-14.7,1.2-22.3C73.3,15.9,65.4,19.6,57.3,23.4z"/>
	</g>
</g>
</svg>
